<?xml version="1.0" encoding="UTF-8"?>
<svg id="Layer_1" xmlns="http://www.w3.org/2000/svg" version="1.1" viewBox="0 0 610.18 132.79">
  <!-- Generator: Adobe Illustrator 30.4.0, SVG Export Plug-In . SVG Version: 2.1.4 Build 226)  -->
  <defs>
    <style>
      .st0 {
        fill: #ef5f24;
      }

      .st1 {
        fill: #f8991e;
      }

      .st2 {
        fill: #219bcb;
      }
    </style>
  </defs>
  <g>
    <path class="st2" d="M131.23,23.38h17.1v59.96h37.05v13.93h-54.15V23.38Z"/>
    <path class="st2" d="M189.18,68.88c0-17.1,13.19-29.24,31.25-29.24s31.14,12.14,31.14,29.24-13.09,29.24-31.14,29.24-31.25-12.14-31.25-29.24ZM234.89,68.88c0-9.82-6.23-15.73-14.46-15.73s-14.57,5.91-14.57,15.73,6.33,15.73,14.57,15.73,14.46-5.91,14.46-15.73Z"/>
    <path class="st2" d="M319.76,40.48v47.29c0,21.11-11.08,30.82-30.93,30.82-10.45,0-20.58-2.64-27.13-7.81l6.54-11.82c4.75,3.91,12.14,6.33,19.21,6.33,11.08,0,15.83-5.17,15.83-15.41v-1.9c-4.33,4.33-10.24,6.54-16.78,6.54-14.25,0-24.28-7.92-24.28-25.55v-28.5h16.47v26.07c0,9.61,4.22,13.83,11.51,13.83s13.09-4.86,13.09-15.31v-24.6h16.47Z"/>
    <path class="st2" d="M392.71,40.48v56.79h-15.73v-6.54c-4.12,4.96-10.13,7.39-17.73,7.39-16.04,0-28.4-11.4-28.4-29.24s12.35-29.24,28.4-29.24c6.97,0,12.88,2.22,17,6.86v-6.02h16.47ZM376.56,68.88c0-9.82-6.33-15.73-14.46-15.73s-14.57,5.91-14.57,15.73,6.33,15.73,14.57,15.73,14.46-5.91,14.46-15.73Z"/>
    <path class="st2" d="M407.91,78.48V18.95h16.47v58.59c0,4.86,2.53,7.5,7.07,7.5,1.79,0,3.69-.53,4.64-1.06l.74,12.77c-2.85.95-5.7,1.37-8.55,1.37-12.77,0-20.37-6.97-20.37-19.63Z"/>
    <path class="st2" d="M479.16,94.53c-3.38,2.43-8.34,3.59-13.3,3.59-13.51,0-21.22-6.86-21.22-20.37V27.92h16.47v13.83h14.04v12.67h-14.04v23.12c0,4.86,2.53,7.5,6.97,7.5,2.43,0,4.86-.74,6.76-2.11l4.33,11.61Z"/>
    <path class="st2" d="M486.44,23.38c0-5.17,4.12-9.18,10.24-9.18s10.24,3.8,10.24,8.87c0,5.49-4.12,9.5-10.24,9.5s-10.24-4.01-10.24-9.18ZM488.45,40.48h16.47v56.79h-16.47v-56.79Z"/>
    <path class="st2" d="M556.33,97.27l-12.46-17.42-12.88,17.42h-17.95l21.85-28.61-21.11-28.19h18.47l12.03,16.57,12.35-16.57h17.52l-21.11,27.76,21.96,29.03h-18.68Z"/>
  </g>
  <g>
    <path class="st1" d="M51.84,44.6v37.97l-17.67,17.67V25.4h.18l16.05,15.77c.92.9,1.44,2.14,1.44,3.43Z"/>
    <path class="st0" d="M110.28,100.24H34.2l17.6-17.6h38.59c1.26,0,2.46.49,3.36,1.37l14.99,14.72,1.54,1.51Z"/>
    <path class="st0" d="M110.25,24.93v58.18l-9.8-9.92c-.93-.95-2.21-1.48-3.54-1.48h-33.45l8.94-8.94,8.93-8.93,28.91-28.91Z"/>
    <path class="st1" d="M110.25,24.93l-28.91,28.91-8.93,8.93-8.94,8.94v-33.92c0-1.31-.52-2.56-1.44-3.49l-9.26-9.37h57.48Z"/>
  </g>
</svg>